# xmcd
#
# Track frame offsets:
#	150
#	12017
#	28887
#	48780
#	61280
#	76610
#	89652
#	106465
#
# Disc length: 1590 seconds
#
# Revision: 0
# Processed by: cddbd v1.5.1PL0 Copyright (c) Steve Scherf et al.
# Submitted via: audiograbber 1.83.01
#
DISCID=57063408
DTITLE=Kent McAlister and His Band - Memory Replacer
DYEAR=2004
DGENRE=Country
TTITLE0=Things You Say
TTITLE1=Play 'Em Right
TTITLE2=Memory Replacer
TTITLE3=Leavin' Town
TTITLE4=Give Up The Gamble
TTITLE5=Blue Oktober
TTITLE6=The Gyspy Song
TTITLE7=Change Your Tune
EXTD=Canadian Artist
EXTT0=
EXTT1=
EXTT2=
EXTT3=
EXTT4=
EXTT5=
EXTT6=
EXTT7=
PLAYORDER=
